<?xml version="1.0" encoding="utf-8"?>
<!-- Generator: Adobe Illustrator 23.1.0, SVG Export Plug-In . SVG Version: 6.00 Build 0)  -->
<svg version="1.1" id="Layer_1" xmlns="http://www.w3.org/2000/svg" xmlns:xlink="http://www.w3.org/1999/xlink" x="0px" y="0px"
	 viewBox="0 0 25 25" style="enable-background:new 0 0 25 25;" xml:space="preserve">
<style type="text/css">
	.st0{fill:#FFFFFF;}
</style>
<g>
	<g>
		<path class="st0" d="M18.9,17.5h-6.6c-1.5,0-2.9-0.9-3.5-2.3l-4-8.9H2c-0.6,0-1-0.4-1-1s0.4-1,1-1h3.4c0.4,0,0.7,0.2,0.9,0.6
			l4.3,9.5c0.3,0.7,1,1.1,1.7,1.1h6.6c0.9,0,1.6-0.6,1.8-1.5l1.1-5.5H9.6c-0.6,0-1-0.4-1-1s0.4-1,1-1H23c0.3,0,0.6,0.1,0.8,0.4
			S24,7.5,24,7.8l-1.3,6.7C22.3,16.2,20.7,17.5,18.9,17.5z"/>
	</g>
	<g>
		<circle class="st0" cx="12.5" cy="20.2" r="1.8"/>
	</g>
	<g>
		<circle class="st0" cx="18.3" cy="20.2" r="1.8"/>
	</g>
</g>
</svg>
