<?xml version="1.0" encoding="utf-8"?>
<!-- Generator: Adobe Illustrator 23.1.0, SVG Export Plug-In . SVG Version: 6.00 Build 0)  -->
<svg version="1.1" id="Layer_1" xmlns="http://www.w3.org/2000/svg" xmlns:xlink="http://www.w3.org/1999/xlink" x="0px" y="0px"
	 viewBox="0 0 25 25" style="enable-background:new 0 0 25 25;" xml:space="preserve">
<style type="text/css">
	.st0{fill:#343233;}
</style>
<path class="st0" d="M22.7,12.5L13.2,3c-0.2-0.2-0.5-0.3-0.7-0.3c-0.3,0-0.5,0.1-0.7,0.3l-9.5,9.5c-0.4,0.4-0.4,1,0,1.4
	c0.2,0.2,0.5,0.3,0.7,0.3s0.5-0.1,0.7-0.3l1.2-1.2v4.9c0,2.6,2.1,4.7,4.7,4.7h0.6h4.6h0.5c2.6,0,4.7-2.1,4.7-4.7v-4.9l1.2,1.2
	c0.2,0.2,0.5,0.3,0.7,0.3s0.5-0.1,0.7-0.3C23.1,13.6,23.1,12.9,22.7,12.5z M11.3,20.3v-5.2h2.6v5.2H11.3z M18.1,17.6
	c0,1.3-1,2.4-2.2,2.7v-6.1c0-0.6-0.4-1-1-1h-4.6c-0.6,0-1,0.4-1,1v6.1c-1.3-0.2-2.3-1.3-2.3-2.7v-6.9l5.6-5.6l5.6,5.6V17.6z"/>
</svg>
