<?xml version="1.0" encoding="utf-8"?>
<!-- Generator: Adobe Illustrator 23.1.0, SVG Export Plug-In . SVG Version: 6.00 Build 0)  -->
<svg version="1.1" id="Layer_1" xmlns="http://www.w3.org/2000/svg" xmlns:xlink="http://www.w3.org/1999/xlink" x="0px" y="0px"
	 viewBox="0 0 25 25" style="enable-background:new 0 0 25 25;" xml:space="preserve">
<style type="text/css">
	.st0{fill:#343233;}
</style>
<g>
	<g>
		<g>
			<path class="st0" d="M15.6,8.3H9.4c-0.6,0-1-0.4-1-1s0.4-1,1-1h6.3c0.6,0,1,0.4,1,1S16.2,8.3,15.6,8.3z"/>
		</g>
		<g>
			<path class="st0" d="M15.6,18.7H9.4c-0.6,0-1-0.4-1-1s0.4-1,1-1h6.3c0.6,0,1,0.4,1,1S16.2,18.7,15.6,18.7z"/>
		</g>
	</g>
	<g>
		<path class="st0" d="M18.8,13.5H6.2c-0.6,0-1-0.4-1-1s0.4-1,1-1h12.5c0.6,0,1,0.4,1,1S19.3,13.5,18.8,13.5z"/>
	</g>
</g>
</svg>
